<svg width="18" height="18" viewBox="0 0 18 18" fill="none" xmlns="http://www.w3.org/2000/svg">
<path d="M6.19316 5.03671C5.93553 4.79947 5.93563 4.4148 6.19338 4.17767C6.45093 3.94073 6.86826 3.94078 7.12573 4.1778L11.7415 8.42677C11.8234 8.50173 11.8884 8.59087 11.9328 8.68905C11.9772 8.78723 12 8.89253 12 8.99887C12 9.10522 11.9772 9.21051 11.9328 9.30869C11.8884 9.40688 11.8234 9.49602 11.7415 9.57097L7.12569 13.8222C6.8683 14.0593 6.45093 14.0593 6.19352 13.8222C5.93613 13.5852 5.93611 13.2009 6.19347 12.9639L10.4972 9.00009L6.19316 5.03671Z" fill="#F8EFEF"/>
</svg>
