<svg width="35" height="50" viewBox="0 0 35 50" fill="none" xmlns="http://www.w3.org/2000/svg">
<path fill-rule="evenodd" clip-rule="evenodd" d="M17.4921 13.6681C17.491 14.6066 18.6857 15.06 19.3503 14.3945L25.5186 8.21694C25.9296 7.80526 26.5981 7.80329 27.0116 8.21252L34.6379 15.76C34.8365 15.9565 34.9485 16.2235 34.9493 16.5022L35 33.4681C35.0008 33.7468 34.8904 34.0145 34.693 34.2122L19.2437 49.6846C18.5791 50.3502 17.491 49.8937 17.4921 48.9553V36.3319C17.4932 35.3934 16.3143 34.94 15.6497 35.6055L9.48143 41.7831C9.07037 42.1947 8.40193 42.1967 7.98842 41.7875L0.362108 34.24C0.163535 34.0435 0.0515095 33.7765 0.050677 33.4978L4.67367e-06 16.532C-0.000827876 16.2532 0.1096 15.9855 0.306996 15.7879L15.7563 0.315378C16.4209 -0.350193 17.4932 0.106238 17.4921 1.04471V13.6681ZM9.72764 24.243C9.31658 24.6546 9.31857 25.3201 9.73208 25.7293L16.8136 32.7376C17.2271 33.1469 17.8956 33.1449 18.3066 32.7332L25.2724 25.7571C25.6834 25.3454 25.6814 24.6799 25.2679 24.2707L18.1864 17.2624C17.7729 16.8531 17.1044 16.8551 16.6934 17.2668L9.72764 24.243Z" fill="#F8EFEF"/>
</svg>
