<svg width="171" height="30" viewBox="0 0 171 30" fill="none" xmlns="http://www.w3.org/2000/svg">
<path d="M34.6336 25.1318C29.8061 25.1318 26.5743 22.3192 25.6142 17.9245L26.0334 17.4241H26.5338L26.8177 17.0861C26.7231 16.41 26.669 15.7203 26.669 14.9766C26.669 13.1782 26.98 11.5285 27.5885 10.1221H28.9407C30.3335 6.84977 33.2678 4.84848 37.338 4.84848C41.8139 4.84848 44.8969 7.25543 46.1004 11.0687L42.8145 11.9747C42.0573 9.44603 40.2453 7.91802 37.338 7.91802C35.2421 7.91802 33.7005 8.71583 32.7269 10.1221H31.3747C30.5228 11.3391 30.0901 13.0024 30.0901 15.0577C30.0901 15.6798 30.1307 16.3153 30.2388 16.9238L29.8467 17.4241H29.3329L29.0759 17.7487C29.7791 20.4261 31.6452 22.0623 34.6336 22.0623C37.5408 22.0623 39.3528 20.5342 40.1101 18.0056L43.396 18.9116C42.1925 22.7248 39.1094 25.1318 34.6336 25.1318Z" fill="#F8EFEF"/>
<path d="M49.0964 24.7261H45.824V17.7622L46.1621 17.4241H46.8382L47.1763 17.0861V10.1221H50.0565V12.4615C50.9895 10.8388 52.6257 10.0545 54.4512 10.0545C54.7893 10.0545 55.1003 10.0816 55.3978 10.1221V13.1646C55.0868 13.0835 54.7217 13.0294 54.3025 13.0294C51.9226 13.0294 50.5433 14.7197 50.4486 17.0861L50.1106 17.4241H49.4345L49.0964 17.7622V24.7261Z" fill="#F8EFEF"/>
<path d="M59.8254 25.1318C56.6477 25.1318 54.9304 23.1305 54.9304 20.8182C54.9304 16.4505 61.0965 15.7339 64.6529 15.3282L65.9645 15.1659C65.8428 13.4892 64.9639 12.7049 62.9761 12.7049C61.6645 12.7049 60.2717 13.2593 59.7849 14.7467L56.81 13.8137C57.5267 11.3527 59.5415 9.71647 63.1113 9.71647C65.5724 9.71647 67.6413 10.5008 68.6014 12.4344C69.1152 13.4621 69.1558 14.5033 69.1558 15.7609V17.0861L68.8177 17.4241H68.1416L67.8036 17.7622V24.7261H64.9504V22.7654C63.7063 24.3881 62.1513 25.1318 59.8254 25.1318ZM59.9336 18.7493C58.7707 19.1685 58.1216 19.7364 58.1216 20.683C58.1216 21.7512 58.933 22.5355 60.5421 22.5355C62.6922 22.5355 63.9227 21.1292 64.2472 20.1151C64.5177 19.4525 64.5717 18.5194 64.5717 17.8433L63.6793 17.9785C62.4082 18.1543 61.0289 18.3572 59.9336 18.7493Z" fill="#F8EFEF"/>
<path d="M76.4489 25.1318C72.8114 25.1318 70.4586 23.4415 69.9718 20.4937L73.2982 19.9798C73.6227 21.4402 74.8803 22.3057 76.6517 22.3057C78.1933 22.3057 79.1128 21.6566 79.1128 20.6695C79.1128 19.5201 77.8822 19.155 76.4354 18.7223C74.353 18.0867 71.7973 17.316 71.7973 14.314C71.7973 11.4879 74.0555 9.71647 77.5442 9.71647C80.9383 9.71647 83.3317 11.3932 83.6968 14.0301L80.3703 14.625C80.1675 13.1646 78.7612 12.5156 77.4495 12.5156C76.2055 12.5156 75.0426 13.097 75.0426 14.1247C75.0426 15.22 76.3407 15.5986 77.8552 16.0313C79.9511 16.6398 82.4528 17.3565 82.4528 20.4261C82.4528 23.3469 80.181 25.1318 76.4489 25.1318Z" fill="#F8EFEF"/>
<path d="M84.8466 17.7622L85.1847 17.4241H85.8608L86.1988 17.0861V10.4602L86.5369 10.1221H87.213L87.551 9.78409V5.25414H90.4583V9.45955L89.1061 10.8118V11.7448C90.1744 10.4872 91.77 9.70295 93.8794 9.70295C99.2613 9.70295 99.6264 14.8414 99.6264 16.5722V17.0861L99.2883 17.4241H98.6122L98.2742 17.7622V24.7261H94.9747V17.7622L95.3128 17.4241H96.0024L96.327 17.0861C96.2458 15.2741 95.7185 12.7725 93.0411 12.7725C91.3102 12.7725 89.4983 13.8137 89.4983 17.0861L89.1602 17.4241H88.4841L88.146 17.7622V24.7261H84.8466V17.7622Z" fill="#F8EFEF"/>
<path d="M103.449 24.694V5.76291H109.561C111.761 5.76291 113.573 6.15055 114.997 6.92582C116.439 7.70109 117.503 8.8009 118.188 10.2252C118.892 11.6315 119.243 13.3083 119.243 15.2555C119.243 17.1666 118.892 18.8344 118.188 20.2587C117.503 21.665 116.439 22.7558 114.997 23.5311C113.573 24.3064 111.761 24.694 109.561 24.694H103.449ZM106.694 21.9355H109.399C111.04 21.9355 112.329 21.674 113.266 21.1512C114.222 20.6103 114.898 19.844 115.295 18.8524C115.709 17.8428 115.917 16.6438 115.917 15.2555C115.917 13.8492 115.709 12.6502 115.295 11.6586C114.898 10.6489 114.222 9.87366 113.266 9.33277C112.329 8.77385 111.04 8.4944 109.399 8.4944H106.694V21.9355Z" fill="#F8EFEF"/>
<path d="M127.334 25.0185C125.982 25.0185 124.792 24.7301 123.764 24.1531C122.736 23.5581 121.934 22.7288 121.357 21.665C120.78 20.6013 120.492 19.3753 120.492 17.987C120.492 16.5446 120.771 15.2825 121.33 14.2008C121.907 13.119 122.709 12.2716 123.737 11.6586C124.783 11.0456 125.991 10.7391 127.361 10.7391C128.695 10.7391 129.858 11.0366 130.85 11.6315C131.841 12.2265 132.608 13.0288 133.149 14.0385C133.689 15.0301 133.96 16.148 133.96 17.392C133.96 17.5723 133.96 17.7706 133.96 17.987C133.96 18.2033 133.942 18.4287 133.906 18.6631H122.818V16.5807H130.688C130.651 15.589 130.318 14.8138 129.687 14.2549C129.056 13.6779 128.272 13.3894 127.334 13.3894C126.667 13.3894 126.054 13.5427 125.495 13.8492C124.936 14.1557 124.494 14.6154 124.17 15.2285C123.845 15.8234 123.683 16.5807 123.683 17.5002V18.2845C123.683 19.1319 123.836 19.8621 124.143 20.4751C124.467 21.0881 124.9 21.5569 125.441 21.8814C126 22.1879 126.622 22.3411 127.307 22.3411C128.064 22.3411 128.686 22.1789 129.173 21.8543C129.678 21.5298 130.047 21.0971 130.282 20.5562H133.581C133.329 21.4036 132.914 22.1699 132.337 22.855C131.76 23.5221 131.048 24.054 130.201 24.4506C129.353 24.8292 128.398 25.0185 127.334 25.0185Z" fill="#F8EFEF"/>
<path d="M138.808 24.694L133.778 11.0636H137.185L140.782 21.6109L144.379 11.0636H147.733L142.702 24.694H138.808Z" fill="#F8EFEF"/>
<path d="M148.834 24.694V11.0636H152.079V24.694H148.834ZM150.456 8.90006C149.861 8.90006 149.366 8.71976 148.969 8.35917C148.59 7.98055 148.401 7.5208 148.401 6.97991C148.401 6.42099 148.59 5.97025 148.969 5.62769C149.366 5.26709 149.861 5.0868 150.456 5.0868C151.051 5.0868 151.538 5.26709 151.917 5.62769C152.313 5.97025 152.512 6.42099 152.512 6.97991C152.512 7.5208 152.313 7.98055 151.917 8.35917C151.538 8.71976 151.051 8.90006 150.456 8.90006Z" fill="#F8EFEF"/>
<path d="M154.477 24.694V5.22202H157.722V24.694H154.477Z" fill="#F8EFEF"/>
<path d="M165.428 25.0185C164.22 25.0185 163.165 24.8292 162.263 24.4506C161.38 24.054 160.677 23.5131 160.154 22.8279C159.649 22.1248 159.352 21.3225 159.261 20.421H162.507C162.597 20.7996 162.759 21.1512 162.994 21.4757C163.228 21.7822 163.543 22.0256 163.94 22.2059C164.355 22.3862 164.842 22.4764 165.401 22.4764C165.941 22.4764 166.383 22.4042 166.726 22.26C167.068 22.0977 167.321 21.8904 167.483 21.638C167.645 21.3856 167.726 21.1151 167.726 20.8267C167.726 20.3939 167.609 20.0604 167.375 19.826C167.14 19.5916 166.798 19.4113 166.347 19.2851C165.914 19.1409 165.392 19.0057 164.779 18.8795C164.129 18.7532 163.498 18.6 162.885 18.4197C162.29 18.2214 161.75 17.978 161.263 17.6895C160.794 17.401 160.415 17.0314 160.127 16.5807C159.856 16.1299 159.721 15.58 159.721 14.931C159.721 14.1377 159.929 13.4255 160.343 12.7945C160.776 12.1634 161.389 11.6676 162.182 11.307C162.994 10.9284 163.958 10.7391 165.076 10.7391C166.663 10.7391 167.925 11.1087 168.862 11.8479C169.818 12.5691 170.377 13.5878 170.539 14.9039H167.456C167.366 14.3991 167.113 14.0115 166.699 13.741C166.284 13.4525 165.734 13.3083 165.049 13.3083C164.346 13.3083 163.805 13.4435 163.426 13.714C163.066 13.9664 162.885 14.3089 162.885 14.7417C162.885 15.0121 162.994 15.2645 163.21 15.4989C163.444 15.7153 163.778 15.9046 164.211 16.0668C164.643 16.2111 165.175 16.3553 165.806 16.4995C166.816 16.6979 167.708 16.9323 168.484 17.2027C169.259 17.4731 169.872 17.8698 170.323 18.3927C170.773 18.9155 170.999 19.6547 170.999 20.6103C171.017 21.4757 170.791 22.242 170.323 22.9091C169.872 23.5762 169.232 24.099 168.402 24.4776C167.573 24.8382 166.581 25.0185 165.428 25.0185Z" fill="#F8EFEF"/>
<path fill-rule="evenodd" clip-rule="evenodd" d="M10.3388 8.12908C10.3381 8.68723 11.0443 8.95694 11.4371 8.56109L15.0829 4.88701C15.3258 4.64217 15.7209 4.64099 15.9653 4.88438L20.4729 9.37322C20.5903 9.4901 20.6565 9.6489 20.657 9.81468L20.6869 19.9051C20.6874 20.0709 20.6221 20.2301 20.5055 20.3476L11.3741 29.5499C10.9813 29.9457 10.3381 29.6742 10.3388 29.1161V21.6083C10.3394 21.0502 9.64263 20.7805 9.24983 21.1763L5.60404 24.8504C5.36108 25.0953 4.966 25.0964 4.72159 24.8531L0.214025 20.3642C0.0966578 20.2473 0.0304449 20.0885 0.0299529 19.9228L2.7624e-06 9.83236C-0.00048932 9.66657 0.0647797 9.50738 0.181451 9.3898L9.31283 0.187571C9.70563 -0.208277 10.3394 0.0631851 10.3388 0.62134V8.12908ZM5.74957 14.4185C5.50661 14.6633 5.50778 15.0591 5.75219 15.3025L9.93777 19.4707C10.1822 19.7141 10.5773 19.7129 10.8202 19.468L14.9373 15.319C15.1803 15.0741 15.1791 14.6783 14.9347 14.435L10.7491 10.2668C10.5047 10.0234 10.1096 10.0246 9.86669 10.2694L5.74957 14.4185Z" fill="#F8EFEF"/>
</svg>
