<svg width="72" height="72" viewBox="0 0 72 72" fill="none" xmlns="http://www.w3.org/2000/svg">
<mask id="path-1-inside-1_334_538" fill="white">
<rect width="72" height="72" rx="0.6"/>
</mask>
<rect width="72" height="72" rx="0.6" stroke="white" stroke-opacity="0.5" stroke-width="2.4" mask="url(#path-1-inside-1_334_538)"/>
<path fill-rule="evenodd" clip-rule="evenodd" d="M51 15V21H57V15H51ZM33 57H39V63H33V57ZM57 33H63V39H57V33ZM33 45H39V51H33V45ZM45 33H51V39H45V33ZM12 9H36C36.7956 9 37.5587 9.31607 38.1213 9.87868C38.6839 10.4413 39 11.2044 39 12V36C39 36.7956 38.6839 37.5587 38.1213 38.1213C37.5587 38.6839 36.7956 39 36 39H12C11.2044 39 10.4413 38.6839 9.87868 38.1213C9.31607 37.5587 9 36.7956 9 36V12C9 11.2044 9.31607 10.4413 9.87868 9.87868C10.4413 9.31607 11.2044 9 12 9ZM15 15V33H33V15H15ZM21 21H27V27H21V21ZM48 9H60C60.7957 9 61.5587 9.31607 62.1213 9.87868C62.6839 10.4413 63 11.2044 63 12V24C63 24.7956 62.6839 25.5587 62.1213 26.1213C61.5587 26.6839 60.7957 27 60 27H48C47.2043 27 46.4413 26.6839 45.8787 26.1213C45.3161 25.5587 45 24.7956 45 24V12C45 11.2044 45.3161 10.4413 45.8787 9.87868C46.4413 9.31607 47.2043 9 48 9ZM48 45H60C60.7957 45 61.5587 45.3161 62.1213 45.8787C62.6839 46.4413 63 47.2043 63 48V60C63 60.7957 62.6839 61.5587 62.1213 62.1213C61.5587 62.6839 60.7957 63 60 63H48C47.2043 63 46.4413 62.6839 45.8787 62.1213C45.3161 61.5587 45 60.7957 45 60V48C45 47.2043 45.3161 46.4413 45.8787 45.8787C46.4413 45.3161 47.2043 45 48 45ZM51 51V57H57V51H51ZM12 45H24C24.7956 45 25.5587 45.3161 26.1213 45.8787C26.6839 46.4413 27 47.2043 27 48V60C27 60.7957 26.6839 61.5587 26.1213 62.1213C25.5587 62.6839 24.7956 63 24 63H12C11.2044 63 10.4413 62.6839 9.87868 62.1213C9.31607 61.5587 9 60.7957 9 60V48C9 47.2043 9.31607 46.4413 9.87868 45.8787C10.4413 45.3161 11.2044 45 12 45ZM15 51V57H21V51H15Z" fill="white" fill-opacity="0.5"/>
</svg>
